<svg width="58" height="58" viewBox="0 0 58 58" fill="none" xmlns="http://www.w3.org/2000/svg">
<rect x="1.12305" y="1.23633" width="55.6038" height="55.6038" rx="27.8019" fill="white"/>
<rect x="1.12305" y="1.23633" width="55.6038" height="55.6038" rx="27.8019" stroke="#1D1D1D"/>
<path d="M17.3129 17.4262H21.6671L24.5698 14.5234H33.2781L36.1808 17.4262H40.535C41.3048 17.4262 42.0432 17.732 42.5875 18.2764C43.1319 18.8208 43.4377 19.5591 43.4377 20.329V37.7455C43.4377 38.5154 43.1319 39.2537 42.5875 39.7981C42.0432 40.3424 41.3048 40.6483 40.535 40.6483H17.3129C16.5431 40.6483 15.8047 40.3424 15.2604 39.7981C14.716 39.2537 14.4102 38.5154 14.4102 37.7455V20.329C14.4102 19.5591 14.716 18.8208 15.2604 18.2764C15.8047 17.732 16.5431 17.4262 17.3129 17.4262ZM28.9239 21.7803C26.9993 21.7803 25.1535 22.5449 23.7925 23.9058C22.4316 25.2668 21.6671 27.1126 21.6671 29.0372C21.6671 30.9619 22.4316 32.8077 23.7925 34.1686C25.1535 35.5296 26.9993 36.2941 28.9239 36.2941C30.8486 36.2941 32.6944 35.5296 34.0553 34.1686C35.4163 32.8077 36.1808 30.9619 36.1808 29.0372C36.1808 27.1126 35.4163 25.2668 34.0553 23.9058C32.6944 22.5449 30.8486 21.7803 28.9239 21.7803ZM28.9239 24.6831C30.0787 24.6831 31.1862 25.1418 32.0028 25.9584C32.8193 26.7749 33.2781 27.8824 33.2781 29.0372C33.2781 30.192 32.8193 31.2995 32.0028 32.1161C31.1862 32.9326 30.0787 33.3914 28.9239 33.3914C27.7692 33.3914 26.6617 32.9326 25.8451 32.1161C25.0285 31.2995 24.5698 30.192 24.5698 29.0372C24.5698 27.8824 25.0285 26.7749 25.8451 25.9584C26.6617 25.1418 27.7692 24.6831 28.9239 24.6831Z" fill="#1D1D1D"/>
</svg>
