<svg width="30" height="30" viewBox="0 0 30 30" fill="none" xmlns="http://www.w3.org/2000/svg">
<path d="M26.25 9.375V26.25H9.375V9.375H26.25ZM26.25 7.5H9.375C8.87772 7.5 8.40081 7.69754 8.04918 8.04918C7.69754 8.40081 7.5 8.87772 7.5 9.375V26.25C7.5 26.7473 7.69754 27.2242 8.04918 27.5758C8.40081 27.9275 8.87772 28.125 9.375 28.125H26.25C26.7473 28.125 27.2242 27.9275 27.5758 27.5758C27.9275 27.2242 28.125 26.7473 28.125 26.25V9.375C28.125 8.87772 27.9275 8.40081 27.5758 8.04918C27.2242 7.69754 26.7473 7.5 26.25 7.5Z" fill="#2D2C3C"/>
<path d="M3.75 16.875H1.875V3.75C1.875 3.25272 2.07254 2.77581 2.42417 2.42417C2.77581 2.07254 3.25272 1.875 3.75 1.875H16.875V3.75H3.75V16.875Z" fill="#2D2C3C"/>
</svg>
