<svg width="75" height="59" viewBox="0 0 75 59" fill="none" xmlns="http://www.w3.org/2000/svg">
<g clip-path="url(#clip0_2516_7474)">
<path d="M40.2539 18.2217C40.5619 19.1692 41.4451 19.8105 42.4414 19.8105H52.9707L44.4521 26C43.6966 26.549 43.3529 27.4957 43.5664 28.3926L43.6172 28.5713L46.8701 38.5859L38.3516 32.3965L38.1973 32.2939C37.4627 31.8456 36.5373 31.8456 35.8027 32.2939L35.6484 32.3965L27.1289 38.5859L30.3828 28.5713C30.6714 27.683 30.3934 26.7154 29.6934 26.1152L29.5479 26L21.0293 19.8105H31.5586C32.4927 19.8105 33.3272 19.2468 33.6816 18.3955L33.7461 18.2217L37 8.20605L40.2539 18.2217Z" stroke="white" stroke-width="2.6"/>
<path d="M1.75838 58V48.2H3.57838V58H1.75838ZM10.3031 50.44C10.9004 50.44 11.4324 50.5567 11.8991 50.79C12.3751 51.0233 12.7484 51.3827 13.0191 51.868C13.2898 52.344 13.4251 52.96 13.4251 53.716V58H11.6751V53.94C11.6751 53.2773 11.5164 52.7827 11.1991 52.456C10.8911 52.1293 10.4571 51.966 9.89709 51.966C9.48642 51.966 9.12242 52.05 8.80509 52.218C8.48775 52.386 8.24042 52.638 8.06309 52.974C7.89509 53.3007 7.81109 53.716 7.81109 54.22V58H6.06109V50.524H7.72709V52.54L7.43309 51.924C7.69442 51.448 8.07242 51.084 8.56709 50.832C9.07109 50.5707 9.64975 50.44 10.3031 50.44ZM18.4591 58.098C17.6377 58.098 17.0031 57.888 16.5551 57.468C16.1071 57.0387 15.8831 56.4087 15.8831 55.578V48.872H17.6331V55.536C17.6331 55.8907 17.7217 56.166 17.8991 56.362C18.0857 56.558 18.3424 56.656 18.6691 56.656C19.0611 56.656 19.3877 56.5533 19.6491 56.348L20.1391 57.594C19.9337 57.762 19.6817 57.888 19.3831 57.972C19.0844 58.056 18.7764 58.098 18.4591 58.098ZM14.6511 51.98V50.58H19.6351V51.98H14.6511ZM24.8466 58.098C24.0159 58.098 23.2879 57.9347 22.6626 57.608C22.0466 57.272 21.5659 56.8147 21.2206 56.236C20.8846 55.6573 20.7166 54.9993 20.7166 54.262C20.7166 53.5153 20.8799 52.8573 21.2066 52.288C21.5426 51.7093 21.9999 51.2567 22.5786 50.93C23.1666 50.6033 23.8339 50.44 24.5806 50.44C25.3086 50.44 25.9572 50.5987 26.5266 50.916C27.0959 51.2333 27.5439 51.6813 27.8706 52.26C28.1972 52.8387 28.3606 53.52 28.3606 54.304C28.3606 54.3787 28.3559 54.4627 28.3466 54.556C28.3466 54.6493 28.3419 54.738 28.3326 54.822H22.1026V53.66H27.4086L26.7226 54.024C26.7319 53.5947 26.6432 53.2167 26.4566 52.89C26.2699 52.5633 26.0132 52.3067 25.6866 52.12C25.3692 51.9333 25.0006 51.84 24.5806 51.84C24.1512 51.84 23.7732 51.9333 23.4466 52.12C23.1292 52.3067 22.8772 52.568 22.6906 52.904C22.5132 53.2307 22.4246 53.618 22.4246 54.066V54.346C22.4246 54.794 22.5272 55.1907 22.7326 55.536C22.9379 55.8813 23.2272 56.1473 23.6006 56.334C23.9739 56.5207 24.4032 56.614 24.8886 56.614C25.3086 56.614 25.6866 56.5487 26.0226 56.418C26.3586 56.2873 26.6572 56.082 26.9186 55.802L27.8566 56.88C27.5206 57.272 27.0959 57.5753 26.5826 57.79C26.0786 57.9953 25.4999 58.098 24.8466 58.098ZM30.0416 58V50.524H31.7076V52.582L31.5116 51.98C31.7356 51.476 32.0856 51.0933 32.5616 50.832C33.0469 50.5707 33.6489 50.44 34.3676 50.44V52.106C34.2929 52.0873 34.2229 52.078 34.1576 52.078C34.0922 52.0687 34.0269 52.064 33.9616 52.064C33.2989 52.064 32.7716 52.26 32.3796 52.652C31.9876 53.0347 31.7916 53.6087 31.7916 54.374V58H30.0416ZM39.2977 58.098C38.4671 58.098 37.7391 57.9347 37.1137 57.608C36.4977 57.272 36.0171 56.8147 35.6717 56.236C35.3357 55.6573 35.1677 54.9993 35.1677 54.262C35.1677 53.5153 35.3311 52.8573 35.6577 52.288C35.9937 51.7093 36.4511 51.2567 37.0297 50.93C37.6177 50.6033 38.2851 50.44 39.0317 50.44C39.7597 50.44 40.4084 50.5987 40.9777 50.916C41.5471 51.2333 41.9951 51.6813 42.3217 52.26C42.6484 52.8387 42.8117 53.52 42.8117 54.304C42.8117 54.3787 42.8071 54.4627 42.7977 54.556C42.7977 54.6493 42.7931 54.738 42.7837 54.822H36.5537V53.66H41.8597L41.1737 54.024C41.1831 53.5947 41.0944 53.2167 40.9077 52.89C40.7211 52.5633 40.4644 52.3067 40.1377 52.12C39.8204 51.9333 39.4517 51.84 39.0317 51.84C38.6024 51.84 38.2244 51.9333 37.8977 52.12C37.5804 52.3067 37.3284 52.568 37.1417 52.904C36.9644 53.2307 36.8757 53.618 36.8757 54.066V54.346C36.8757 54.794 36.9784 55.1907 37.1837 55.536C37.3891 55.8813 37.6784 56.1473 38.0517 56.334C38.4251 56.5207 38.8544 56.614 39.3397 56.614C39.7597 56.614 40.1377 56.5487 40.4737 56.418C40.8097 56.2873 41.1084 56.082 41.3697 55.802L42.3077 56.88C41.9717 57.272 41.5471 57.5753 41.0337 57.79C40.5297 57.9953 39.9511 58.098 39.2977 58.098ZM46.8027 58.098C46.1774 58.098 45.5754 58.0187 44.9967 57.86C44.4274 57.692 43.9747 57.4913 43.6387 57.258L44.3107 55.928C44.6467 56.1427 45.0481 56.32 45.5147 56.46C45.9814 56.6 46.4481 56.67 46.9147 56.67C47.4654 56.67 47.8621 56.5953 48.1047 56.446C48.3567 56.2967 48.4827 56.096 48.4827 55.844C48.4827 55.6387 48.3987 55.4847 48.2307 55.382C48.0627 55.27 47.8434 55.186 47.5727 55.13C47.3021 55.074 46.9987 55.0227 46.6627 54.976C46.3361 54.9293 46.0047 54.8687 45.6687 54.794C45.3421 54.71 45.0434 54.5933 44.7727 54.444C44.5021 54.2853 44.2827 54.0753 44.1147 53.814C43.9467 53.5527 43.8627 53.2073 43.8627 52.778C43.8627 52.302 43.9981 51.8913 44.2687 51.546C44.5394 51.1913 44.9174 50.9207 45.4027 50.734C45.8974 50.538 46.4807 50.44 47.1527 50.44C47.6567 50.44 48.1654 50.496 48.6787 50.608C49.1921 50.72 49.6167 50.8787 49.9527 51.084L49.2807 52.414C48.9261 52.1993 48.5667 52.0547 48.2027 51.98C47.8481 51.896 47.4934 51.854 47.1387 51.854C46.6067 51.854 46.2101 51.9333 45.9487 52.092C45.6967 52.2507 45.5707 52.4513 45.5707 52.694C45.5707 52.918 45.6547 53.086 45.8227 53.198C45.9907 53.31 46.2101 53.3987 46.4807 53.464C46.7514 53.5293 47.0501 53.5853 47.3767 53.632C47.7127 53.6693 48.0441 53.73 48.3707 53.814C48.6974 53.898 48.9961 54.0147 49.2667 54.164C49.5467 54.304 49.7707 54.5047 49.9387 54.766C50.1067 55.0273 50.1907 55.368 50.1907 55.788C50.1907 56.2547 50.0507 56.6607 49.7707 57.006C49.5001 57.3513 49.1127 57.622 48.6087 57.818C48.1047 58.0047 47.5027 58.098 46.8027 58.098ZM54.5118 58.098C53.6905 58.098 53.0558 57.888 52.6078 57.468C52.1598 57.0387 51.9358 56.4087 51.9358 55.578V48.872H53.6858V55.536C53.6858 55.8907 53.7745 56.166 53.9518 56.362C54.1385 56.558 54.3951 56.656 54.7218 56.656C55.1138 56.656 55.4405 56.5533 55.7018 56.348L56.1918 57.594C55.9865 57.762 55.7345 57.888 55.4358 57.972C55.1371 58.056 54.8291 58.098 54.5118 58.098ZM50.7038 51.98V50.58H55.6878V51.98H50.7038ZM60.8993 58.098C60.0686 58.098 59.3406 57.9347 58.7153 57.608C58.0993 57.272 57.6186 56.8147 57.2733 56.236C56.9373 55.6573 56.7693 54.9993 56.7693 54.262C56.7693 53.5153 56.9326 52.8573 57.2593 52.288C57.5953 51.7093 58.0526 51.2567 58.6313 50.93C59.2193 50.6033 59.8866 50.44 60.6333 50.44C61.3613 50.44 62.01 50.5987 62.5793 50.916C63.1486 51.2333 63.5966 51.6813 63.9233 52.26C64.25 52.8387 64.4133 53.52 64.4133 54.304C64.4133 54.3787 64.4086 54.4627 64.3993 54.556C64.3993 54.6493 64.3946 54.738 64.3853 54.822H58.1553V53.66H63.4613L62.7753 54.024C62.7846 53.5947 62.696 53.2167 62.5093 52.89C62.3226 52.5633 62.066 52.3067 61.7393 52.12C61.422 51.9333 61.0533 51.84 60.6333 51.84C60.204 51.84 59.826 51.9333 59.4993 52.12C59.182 52.3067 58.93 52.568 58.7433 52.904C58.566 53.2307 58.4773 53.618 58.4773 54.066V54.346C58.4773 54.794 58.58 55.1907 58.7853 55.536C58.9906 55.8813 59.28 56.1473 59.6533 56.334C60.0266 56.5207 60.456 56.614 60.9413 56.614C61.3613 56.614 61.7393 56.5487 62.0753 56.418C62.4113 56.2873 62.71 56.082 62.9713 55.802L63.9093 56.88C63.5733 57.272 63.1486 57.5753 62.6353 57.79C62.1313 57.9953 61.5526 58.098 60.8993 58.098ZM69.2583 58.098C68.5396 58.098 67.891 57.9393 67.3123 57.622C66.743 57.2953 66.295 56.8473 65.9683 56.278C65.6416 55.7087 65.4783 55.0367 65.4783 54.262C65.4783 53.4873 65.6416 52.8153 65.9683 52.246C66.295 51.6767 66.743 51.2333 67.3123 50.916C67.891 50.5987 68.5396 50.44 69.2583 50.44C69.8836 50.44 70.4436 50.58 70.9383 50.86C71.433 51.1307 71.825 51.546 72.1143 52.106C72.4036 52.666 72.5483 53.3847 72.5483 54.262C72.5483 55.13 72.4083 55.8487 72.1283 56.418C71.8483 56.978 71.461 57.398 70.9663 57.678C70.4716 57.958 69.9023 58.098 69.2583 58.098ZM69.4683 56.6C69.8883 56.6 70.2616 56.5067 70.5883 56.32C70.9243 56.1333 71.1903 55.8627 71.3863 55.508C71.5916 55.1533 71.6943 54.738 71.6943 54.262C71.6943 53.7767 71.5916 53.3613 71.3863 53.016C71.1903 52.6613 70.9243 52.3907 70.5883 52.204C70.2616 52.0173 69.8883 51.924 69.4683 51.924C69.0483 51.924 68.6703 52.0173 68.3343 52.204C68.0076 52.3907 67.7416 52.6613 67.5363 53.016C67.3403 53.3613 67.2423 53.7767 67.2423 54.262C67.2423 54.738 67.3403 55.1533 67.5363 55.508C67.7416 55.8627 68.0076 56.1333 68.3343 56.32C68.6703 56.5067 69.0483 56.6 69.4683 56.6ZM71.7363 58V56.236L71.8063 54.248L71.6663 52.26V47.612H73.4023V58H71.7363Z" fill="white"/>
</g>
<defs>
<clipPath id="clip0_2516_7474">
<rect width="75" height="59" fill="white"/>
</clipPath>
</defs>
</svg>
