<svg width="32" height="32" viewBox="0 0 32 32" fill="none" xmlns="http://www.w3.org/2000/svg">
<g clip-path="url(#clip0_2797_8468)">
<path d="M0.678533 15.809C0.677789 18.4977 1.3803 21.1229 2.71611 23.4368L0.550781 31.3428L8.64157 29.2214C10.8794 30.4396 13.3867 31.078 15.9346 31.0781H15.9413C24.3525 31.0781 31.1993 24.2337 31.2029 15.8211C31.2045 11.7445 29.6184 7.91125 26.7367 5.02728C23.8555 2.14356 20.0235 0.554595 15.9407 0.552734C7.52852 0.552734 0.68213 7.39677 0.678657 15.809" fill="url(#paint0_linear_2797_8468)"/>
<path d="M0.13369 15.8035C0.132822 18.5889 0.860511 21.308 2.24395 23.7048L0.000976562 31.8942L8.38188 29.6967C10.6911 30.9558 13.291 31.6196 15.9366 31.6206H15.9434C24.6564 31.6206 31.7492 24.53 31.7529 15.8162C31.7544 11.5932 30.1112 7.62208 27.1266 4.63479C24.1415 1.64788 20.1725 0.00173643 15.9434 0C7.22901 0 0.137163 7.08961 0.13369 15.8035ZM5.12482 23.292L4.81189 22.7953C3.49642 20.7036 2.80209 18.2865 2.80308 15.8045C2.80581 8.56174 8.70026 2.66915 15.9484 2.66915C19.4585 2.67064 22.7572 4.03895 25.2383 6.52155C27.7193 9.0044 29.0845 12.3049 29.0836 15.8152C29.0804 23.058 23.1858 28.9513 15.9434 28.9513H15.9382C13.58 28.9501 11.2672 28.3168 9.25022 27.12L8.77022 26.8354L3.79682 28.1393L5.12482 23.292Z" fill="url(#paint1_linear_2797_8468)"/>
<path d="M11.992 9.19759C11.6961 8.53986 11.3846 8.52658 11.1032 8.51505C10.8728 8.50513 10.6093 8.50587 10.3461 8.50587C10.0827 8.50587 9.65465 8.60497 9.29285 9.00001C8.93068 9.39542 7.91016 10.351 7.91016 12.2944C7.91016 14.238 9.32572 16.1162 9.52306 16.38C9.72064 16.6433 12.2558 20.7591 16.271 22.3425C19.6079 23.6584 20.287 23.3967 21.0112 23.3307C21.7355 23.2649 23.3484 22.3754 23.6775 21.453C24.0068 20.5307 24.0068 19.7401 23.908 19.5749C23.8093 19.4103 23.5459 19.3115 23.1508 19.114C22.7557 18.9164 20.8136 17.9608 20.4516 17.8289C20.0894 17.6972 19.8261 17.6315 19.5626 18.027C19.2992 18.4219 18.5427 19.3115 18.3121 19.5749C18.0818 19.839 17.8512 19.8718 17.4563 19.6742C17.061 19.476 15.7889 19.0594 14.2795 17.7138C13.1052 16.6667 12.3124 15.3737 12.0819 14.9782C11.8515 14.5833 12.0573 14.3692 12.2553 14.1724C12.4328 13.9954 12.6505 13.7111 12.8482 13.4805C13.0452 13.2498 13.1109 13.0852 13.2426 12.8218C13.3745 12.5581 13.3085 12.3274 13.2099 12.1298C13.1109 11.9322 12.3433 9.97862 11.992 9.19759Z" fill="white"/>
</g>
<defs>
<linearGradient id="paint0_linear_2797_8468" x1="1533.16" y1="3079.56" x2="1533.16" y2="0.552734" gradientUnits="userSpaceOnUse">
<stop stop-color="#1FAF38"/>
<stop offset="1" stop-color="#60D669"/>
</linearGradient>
<linearGradient id="paint1_linear_2797_8468" x1="1587.6" y1="3189.42" x2="1587.6" y2="0" gradientUnits="userSpaceOnUse">
<stop stop-color="#F9F9F9"/>
<stop offset="1" stop-color="white"/>
</linearGradient>
<clipPath id="clip0_2797_8468">
<rect width="31.7547" height="32" fill="white"/>
</clipPath>
</defs>
</svg>
