<svg width="365" height="234" viewBox="0 0 365 234" fill="none" xmlns="http://www.w3.org/2000/svg">
<rect width="365" height="234" rx="10" fill="#C5C5C5"/>
<path fill-rule="evenodd" clip-rule="evenodd" d="M187.969 154.65C203.746 134.965 215.503 120.294 215.503 102.7C215.503 82.6524 200.125 66.4004 181.155 66.4004C162.185 66.4004 146.807 82.6524 146.807 102.7C146.807 120.294 158.564 134.965 174.341 154.65C176.541 157.395 178.819 160.238 181.155 163.2C183.491 160.238 185.769 157.395 187.969 154.65ZM181.35 117.33C189.275 117.33 195.699 110.54 195.699 102.165C195.699 93.7896 189.275 87 181.35 87C173.425 87 167 93.7896 167 102.165C167 110.54 173.425 117.33 181.35 117.33Z" fill="#FF1414"/>
</svg>
