<svg width="69" height="59" viewBox="0 0 69 59" fill="none" xmlns="http://www.w3.org/2000/svg">
<g clip-path="url(#clip0_2516_7478)">
<circle cx="24" cy="24" r="16.5" stroke="white" stroke-width="3"/>
<circle cx="24" cy="18" r="4.7" stroke="white" stroke-width="2.6"/>
<mask id="path-3-inside-1_2516_7478" fill="white">
<path fill-rule="evenodd" clip-rule="evenodd" d="M11.209 36.6647C12.3091 30.5995 17.6173 26 23.9998 26C30.3823 26 35.6905 30.5995 36.7906 36.6647C33.5284 39.9592 29.0024 42 23.9998 42C18.9972 42 14.4712 39.9592 11.209 36.6647Z"/>
</mask>
<path d="M11.209 36.6647L8.25715 36.1293L7.97844 37.6659L9.07725 38.7756L11.209 36.6647ZM36.7906 36.6647L38.9224 38.7756L40.0212 37.6659L39.7425 36.1293L36.7906 36.6647ZM14.1608 37.2001C15.0067 32.5365 19.0934 29 23.9998 29V23C16.1413 23 9.61152 28.6625 8.25715 36.1293L14.1608 37.2001ZM23.9998 29C28.9062 29 32.9929 32.5365 33.8388 37.2001L39.7425 36.1293C38.3881 28.6625 31.8583 23 23.9998 23V29ZM34.6589 34.5539C31.937 37.3027 28.1694 39 23.9998 39V45C29.8355 45 35.1198 42.6157 38.9224 38.7756L34.6589 34.5539ZM23.9998 39C19.8302 39 16.0626 37.3027 13.3407 34.5539L9.07725 38.7756C12.8798 42.6157 18.1641 45 23.9998 45V39Z" fill="white" mask="url(#path-3-inside-1_2516_7478)"/>
<path d="M1.44393 58V48.2H5.47593C6.34393 48.2 7.08593 48.34 7.70193 48.62C8.32726 48.9 8.80793 49.3013 9.14393 49.824C9.47993 50.3467 9.64793 50.9673 9.64793 51.686C9.64793 52.4047 9.47993 53.0253 9.14393 53.548C8.80793 54.0707 8.32726 54.472 7.70193 54.752C7.08593 55.032 6.34393 55.172 5.47593 55.172H2.45193L3.26393 54.318V58H1.44393ZM3.26393 54.514L2.45193 53.632H5.39193C6.1946 53.632 6.7966 53.464 7.19793 53.128C7.6086 52.7827 7.81393 52.302 7.81393 51.686C7.81393 51.0607 7.6086 50.58 7.19793 50.244C6.7966 49.908 6.1946 49.74 5.39193 49.74H2.45193L3.26393 48.844V54.514ZM11.2291 58V50.524H12.8951V52.582L12.6991 51.98C12.9231 51.476 13.2731 51.0933 13.7491 50.832C14.2344 50.5707 14.8364 50.44 15.5551 50.44V52.106C15.4804 52.0873 15.4104 52.078 15.3451 52.078C15.2797 52.0687 15.2144 52.064 15.1491 52.064C14.4864 52.064 13.9591 52.26 13.5671 52.652C13.1751 53.0347 12.9791 53.6087 12.9791 54.374V58H11.2291ZM20.3312 58.098C19.5659 58.098 18.8846 57.9347 18.2872 57.608C17.6899 57.272 17.2186 56.8147 16.8732 56.236C16.5279 55.6573 16.3552 54.9993 16.3552 54.262C16.3552 53.5153 16.5279 52.8573 16.8732 52.288C17.2186 51.7093 17.6899 51.2567 18.2872 50.93C18.8846 50.6033 19.5659 50.44 20.3312 50.44C21.1059 50.44 21.7919 50.6033 22.3892 50.93C22.9959 51.2567 23.4672 51.7047 23.8032 52.274C24.1486 52.8433 24.3212 53.506 24.3212 54.262C24.3212 54.9993 24.1486 55.6573 23.8032 56.236C23.4672 56.8147 22.9959 57.272 22.3892 57.608C21.7919 57.9347 21.1059 58.098 20.3312 58.098ZM20.3312 56.6C20.7606 56.6 21.1432 56.5067 21.4792 56.32C21.8152 56.1333 22.0766 55.8627 22.2632 55.508C22.4592 55.1533 22.5572 54.738 22.5572 54.262C22.5572 53.7767 22.4592 53.3613 22.2632 53.016C22.0766 52.6613 21.8152 52.3907 21.4792 52.204C21.1432 52.0173 20.7652 51.924 20.3452 51.924C19.9159 51.924 19.5332 52.0173 19.1972 52.204C18.8706 52.3907 18.6092 52.6613 18.4132 53.016C18.2172 53.3613 18.1192 53.7767 18.1192 54.262C18.1192 54.738 18.2172 55.1533 18.4132 55.508C18.6092 55.8627 18.8706 56.1333 19.1972 56.32C19.5332 56.5067 19.9112 56.6 20.3312 56.6ZM26.2327 58V50.104C26.2327 49.32 26.4613 48.6947 26.9187 48.228C27.3853 47.752 28.048 47.514 28.9067 47.514C29.2147 47.514 29.504 47.5467 29.7747 47.612C30.0547 47.6773 30.288 47.78 30.4747 47.92L29.9987 49.236C29.868 49.1333 29.7187 49.0587 29.5507 49.012C29.3827 48.956 29.21 48.928 29.0327 48.928C28.6687 48.928 28.3933 49.0307 28.2067 49.236C28.02 49.432 27.9267 49.7307 27.9267 50.132V50.972L27.9827 51.756V58H26.2327ZM25.0007 51.98V50.58H29.9847V51.98H25.0007ZM31.2167 58V50.524H32.9667V58H31.2167ZM32.0987 49.292C31.772 49.292 31.5013 49.1893 31.2867 48.984C31.0813 48.7787 30.9787 48.5313 30.9787 48.242C30.9787 47.9433 31.0813 47.696 31.2867 47.5C31.5013 47.2947 31.772 47.192 32.0987 47.192C32.4253 47.192 32.6913 47.29 32.8967 47.486C33.1113 47.6727 33.2187 47.9107 33.2187 48.2C33.2187 48.508 33.116 48.7693 32.9107 48.984C32.7053 49.1893 32.4347 49.292 32.0987 49.292ZM35.2642 58V47.612H37.0142V58H35.2642ZM42.8251 58.098C41.9944 58.098 41.2664 57.9347 40.6411 57.608C40.0251 57.272 39.5444 56.8147 39.1991 56.236C38.8631 55.6573 38.6951 54.9993 38.6951 54.262C38.6951 53.5153 38.8584 52.8573 39.1851 52.288C39.5211 51.7093 39.9784 51.2567 40.5571 50.93C41.1451 50.6033 41.8124 50.44 42.5591 50.44C43.2871 50.44 43.9358 50.5987 44.5051 50.916C45.0744 51.2333 45.5224 51.6813 45.8491 52.26C46.1758 52.8387 46.3391 53.52 46.3391 54.304C46.3391 54.3787 46.3344 54.4627 46.3251 54.556C46.3251 54.6493 46.3204 54.738 46.3111 54.822H40.0811V53.66H45.3871L44.7011 54.024C44.7104 53.5947 44.6218 53.2167 44.4351 52.89C44.2484 52.5633 43.9918 52.3067 43.6651 52.12C43.3478 51.9333 42.9791 51.84 42.5591 51.84C42.1298 51.84 41.7518 51.9333 41.4251 52.12C41.1078 52.3067 40.8558 52.568 40.6691 52.904C40.4918 53.2307 40.4031 53.618 40.4031 54.066V54.346C40.4031 54.794 40.5058 55.1907 40.7111 55.536C40.9164 55.8813 41.2058 56.1473 41.5791 56.334C41.9524 56.5207 42.3818 56.614 42.8671 56.614C43.2871 56.614 43.6651 56.5487 44.0011 56.418C44.3371 56.2873 44.6358 56.082 44.8971 55.802L45.8351 56.88C45.4991 57.272 45.0744 57.5753 44.5611 57.79C44.0571 57.9953 43.4784 58.098 42.8251 58.098Z" fill="white"/>
</g>
<path d="M61.4329 32.4851L57.2553 27.1139C56.7444 26.4571 57.2125 25.5 58.0446 25.5H66.3998C67.232 25.5 67.7 26.4571 67.1892 27.1139L63.0116 32.4851C62.6112 32.9999 61.8332 32.9999 61.4329 32.4851Z" fill="white"/>
<defs>
<clipPath id="clip0_2516_7478">
<rect width="48" height="59" fill="white"/>
</clipPath>
</defs>
</svg>
