<svg width="69" height="59" viewBox="0 0 69 59" fill="none" xmlns="http://www.w3.org/2000/svg">
<g clip-path="url(#clip0_85_17813)">
<circle cx="24.5557" cy="24" r="16.5" stroke="#FFE047" stroke-width="3"/>
<circle cx="24.5557" cy="18" r="4.7" stroke="#FFE047" stroke-width="2.6"/>
<mask id="path-3-inside-1_85_17813" fill="white">
<path fill-rule="evenodd" clip-rule="evenodd" d="M11.7649 36.6647C12.865 30.5995 18.1732 26 24.5557 26C30.9382 26 36.2464 30.5995 37.3465 36.6647C34.0843 39.9592 29.5584 42 24.5557 42C19.5531 42 15.0271 39.9592 11.7649 36.6647Z"/>
</mask>
<path d="M11.7649 36.6647L8.81307 36.1293L8.53436 37.6659L9.63317 38.7756L11.7649 36.6647ZM37.3465 36.6647L39.4783 38.7756L40.5771 37.6659L40.2984 36.1293L37.3465 36.6647ZM14.7167 37.2001C15.5627 32.5365 19.6493 29 24.5557 29V23C16.6972 23 10.1674 28.6625 8.81307 36.1293L14.7167 37.2001ZM24.5557 29C29.4621 29 33.5488 32.5365 34.3947 37.2001L40.2984 36.1293C38.944 28.6625 32.4143 23 24.5557 23V29ZM35.2148 34.5539C32.4929 37.3027 28.7253 39 24.5557 39V45C30.3914 45 35.6758 42.6157 39.4783 38.7756L35.2148 34.5539ZM24.5557 39C20.3861 39 16.6185 37.3027 13.8966 34.5539L9.63317 38.7756C13.4357 42.6157 18.72 45 24.5557 45V39Z" fill="#FFE047" mask="url(#path-3-inside-1_85_17813)"/>
<path d="M1.99959 58V48.2H6.03159C6.89959 48.2 7.64159 48.34 8.25759 48.62C8.88293 48.9 9.36359 49.3013 9.69959 49.824C10.0356 50.3467 10.2036 50.9673 10.2036 51.686C10.2036 52.4047 10.0356 53.0253 9.69959 53.548C9.36359 54.0707 8.88293 54.472 8.25759 54.752C7.64159 55.032 6.89959 55.172 6.03159 55.172H3.00759L3.81959 54.318V58H1.99959ZM3.81959 54.514L3.00759 53.632H5.94759C6.75026 53.632 7.35226 53.464 7.75359 53.128C8.16426 52.7827 8.36959 52.302 8.36959 51.686C8.36959 51.0607 8.16426 50.58 7.75359 50.244C7.35226 49.908 6.75026 49.74 5.94759 49.74H3.00759L3.81959 48.844V54.514ZM11.7847 58V50.524H13.4507V52.582L13.2547 51.98C13.4787 51.476 13.8287 51.0933 14.3047 50.832C14.7901 50.5707 15.3921 50.44 16.1107 50.44V52.106C16.0361 52.0873 15.9661 52.078 15.9007 52.078C15.8354 52.0687 15.7701 52.064 15.7047 52.064C15.0421 52.064 14.5147 52.26 14.1227 52.652C13.7307 53.0347 13.5347 53.6087 13.5347 54.374V58H11.7847ZM20.8869 58.098C20.1216 58.098 19.4402 57.9347 18.8429 57.608C18.2456 57.272 17.7742 56.8147 17.4289 56.236C17.0836 55.6573 16.9109 54.9993 16.9109 54.262C16.9109 53.5153 17.0836 52.8573 17.4289 52.288C17.7742 51.7093 18.2456 51.2567 18.8429 50.93C19.4402 50.6033 20.1216 50.44 20.8869 50.44C21.6616 50.44 22.3476 50.6033 22.9449 50.93C23.5516 51.2567 24.0229 51.7047 24.3589 52.274C24.7042 52.8433 24.8769 53.506 24.8769 54.262C24.8769 54.9993 24.7042 55.6573 24.3589 56.236C24.0229 56.8147 23.5516 57.272 22.9449 57.608C22.3476 57.9347 21.6616 58.098 20.8869 58.098ZM20.8869 56.6C21.3162 56.6 21.6989 56.5067 22.0349 56.32C22.3709 56.1333 22.6322 55.8627 22.8189 55.508C23.0149 55.1533 23.1129 54.738 23.1129 54.262C23.1129 53.7767 23.0149 53.3613 22.8189 53.016C22.6322 52.6613 22.3709 52.3907 22.0349 52.204C21.6989 52.0173 21.3209 51.924 20.9009 51.924C20.4716 51.924 20.0889 52.0173 19.7529 52.204C19.4262 52.3907 19.1649 52.6613 18.9689 53.016C18.7729 53.3613 18.6749 53.7767 18.6749 54.262C18.6749 54.738 18.7729 55.1533 18.9689 55.508C19.1649 55.8627 19.4262 56.1333 19.7529 56.32C20.0889 56.5067 20.4669 56.6 20.8869 56.6ZM26.7883 58V50.104C26.7883 49.32 27.017 48.6947 27.4743 48.228C27.941 47.752 28.6037 47.514 29.4623 47.514C29.7703 47.514 30.0597 47.5467 30.3303 47.612C30.6103 47.6773 30.8437 47.78 31.0303 47.92L30.5543 49.236C30.4237 49.1333 30.2743 49.0587 30.1063 49.012C29.9383 48.956 29.7657 48.928 29.5883 48.928C29.2243 48.928 28.949 49.0307 28.7623 49.236C28.5757 49.432 28.4823 49.7307 28.4823 50.132V50.972L28.5383 51.756V58H26.7883ZM25.5563 51.98V50.58H30.5403V51.98H25.5563ZM31.7723 58V50.524H33.5223V58H31.7723ZM32.6543 49.292C32.3277 49.292 32.057 49.1893 31.8423 48.984C31.637 48.7787 31.5343 48.5313 31.5343 48.242C31.5343 47.9433 31.637 47.696 31.8423 47.5C32.057 47.2947 32.3277 47.192 32.6543 47.192C32.981 47.192 33.247 47.29 33.4523 47.486C33.667 47.6727 33.7743 47.9107 33.7743 48.2C33.7743 48.508 33.6717 48.7693 33.4663 48.984C33.261 49.1893 32.9903 49.292 32.6543 49.292ZM35.8199 58V47.612H37.5699V58H35.8199ZM43.3808 58.098C42.5501 58.098 41.8221 57.9347 41.1968 57.608C40.5808 57.272 40.1001 56.8147 39.7548 56.236C39.4188 55.6573 39.2508 54.9993 39.2508 54.262C39.2508 53.5153 39.4141 52.8573 39.7408 52.288C40.0768 51.7093 40.5341 51.2567 41.1128 50.93C41.7008 50.6033 42.3681 50.44 43.1148 50.44C43.8428 50.44 44.4914 50.5987 45.0608 50.916C45.6301 51.2333 46.0781 51.6813 46.4048 52.26C46.7314 52.8387 46.8948 53.52 46.8948 54.304C46.8948 54.3787 46.8901 54.4627 46.8808 54.556C46.8808 54.6493 46.8761 54.738 46.8668 54.822H40.6368V53.66H45.9428L45.2568 54.024C45.2661 53.5947 45.1774 53.2167 44.9908 52.89C44.8041 52.5633 44.5474 52.3067 44.2208 52.12C43.9034 51.9333 43.5348 51.84 43.1148 51.84C42.6854 51.84 42.3074 51.9333 41.9808 52.12C41.6634 52.3067 41.4114 52.568 41.2248 52.904C41.0474 53.2307 40.9588 53.618 40.9588 54.066V54.346C40.9588 54.794 41.0614 55.1907 41.2668 55.536C41.4721 55.8813 41.7614 56.1473 42.1348 56.334C42.5081 56.5207 42.9374 56.614 43.4228 56.614C43.8428 56.614 44.2208 56.5487 44.5568 56.418C44.8928 56.2873 45.1914 56.082 45.4528 55.802L46.3908 56.88C46.0548 57.272 45.6301 57.5753 45.1168 57.79C44.6128 57.9953 44.0341 58.098 43.3808 58.098Z" fill="#FFE047"/>
</g>
<path d="M61.9885 32.4851L57.811 27.1139C57.3001 26.4571 57.7682 25.5 58.6003 25.5H66.9555C67.7876 25.5 68.2557 26.4571 67.7448 27.1139L63.5672 32.4851C63.1669 32.9999 62.3889 32.9999 61.9885 32.4851Z" fill="#FFE047"/>
<defs>
<clipPath id="clip0_85_17813">
<rect width="48" height="59" fill="white" transform="translate(0.555664)"/>
</clipPath>
</defs>
</svg>
