<svg width="26" height="26" viewBox="0 0 26 26" fill="none" xmlns="http://www.w3.org/2000/svg">
<path d="M15.355 8.75879C15.606 9.53103 16.2962 10.0693 17.0952 10.1338L17.2573 10.1406H24.8765L18.7124 14.6191C18.0552 15.0966 17.7561 15.9202 17.9419 16.7002L17.9858 16.8555L20.3403 24.1025L14.1753 19.624C13.5181 19.1465 12.6429 19.1163 11.9585 19.5342L11.8247 19.624L5.65967 24.1025L8.01416 16.8555C8.26515 16.083 8.02325 15.2416 7.41455 14.7197L7.2876 14.6191L1.12354 10.1406H8.74365C9.55567 10.1404 10.2812 9.65016 10.5894 8.91016L10.645 8.75879L13.0005 1.51172L15.355 8.75879Z" stroke="#2B293D" stroke-width="2"/>
</svg>
