<svg width="52" height="51" viewBox="0 0 52 51" fill="none" xmlns="http://www.w3.org/2000/svg">
<path d="M25.0493 1.44365C25.3486 0.522342 26.652 0.522341 26.9514 1.44365L32.3951 18.1977C32.529 18.6097 32.9129 18.8887 33.3462 18.8887L50.9624 18.8887C51.9311 18.8887 52.3339 20.1283 51.5502 20.6977L37.2984 31.0523C36.9479 31.3069 36.8012 31.7583 36.9351 32.1703L42.3788 48.9244C42.6782 49.8457 41.6237 50.6118 40.84 50.0424L26.5881 39.6878C26.2376 39.4332 25.763 39.4332 25.4126 39.6878L11.1607 50.0424C10.377 50.6118 9.32251 49.8457 9.62186 48.9244L15.0656 32.1703C15.1995 31.7583 15.0528 31.3069 14.7023 31.0523L0.450466 20.6977C-0.333248 20.1283 0.0695269 18.8887 1.03825 18.8887L18.6545 18.8887C19.0877 18.8887 19.4717 18.6097 19.6056 18.1977L25.0493 1.44365Z" fill="#2B293D"/>
</svg>
