<svg width="51" height="58" viewBox="0 0 51 58" fill="none" xmlns="http://www.w3.org/2000/svg">
<g clip-path="url(#clip0_2516_7470)">
<mask id="path-1-inside-1_2516_7470" fill="white">
<path d="M43.2952 16.1717L39.8475 12.7241C39.5693 12.4497 39.1985 12.2894 38.808 12.275C38.4175 12.2605 38.0358 12.3929 37.7381 12.6459C37.2785 13.0371 36.6887 13.2414 36.0856 13.2182C35.4825 13.1951 34.9101 12.9462 34.4819 12.5209C34.0568 12.0927 33.8081 11.5205 33.7849 10.9176C33.7618 10.3146 33.9659 9.72502 34.3569 9.26547C34.61 8.96777 34.7423 8.58606 34.7279 8.19559C34.7134 7.80513 34.5532 7.43425 34.2787 7.15609L30.828 3.70453C30.5363 3.41347 30.1412 3.25 29.7291 3.25C29.3171 3.25 28.9219 3.41347 28.6303 3.70453L23.1342 9.19984C22.7949 9.54038 22.539 9.95485 22.3866 10.4108C22.3569 10.4984 22.3074 10.5781 22.242 10.6435C22.1765 10.709 22.0969 10.7584 22.0092 10.7881C21.5531 10.9406 21.1386 11.1968 20.7983 11.5366L6.70453 25.6303C6.41347 25.9219 6.25 26.3171 6.25 26.7291C6.25 27.1412 6.41347 27.5363 6.70453 27.828L10.1561 31.2756C10.4343 31.55 10.8051 31.7103 11.1956 31.7247C11.5861 31.7392 11.9678 31.6068 12.2655 31.3537C12.724 30.9594 13.3146 30.7528 13.9189 30.7755C14.5233 30.7982 15.0967 31.0485 15.5244 31.4761C15.952 31.9037 16.2022 32.4772 16.2249 33.0815C16.2476 33.6859 16.0411 34.2765 15.6467 34.735C15.3936 35.0327 15.2613 35.4144 15.2757 35.8049C15.2902 36.1953 15.4504 36.5662 15.7248 36.8444L19.1725 40.292C19.4641 40.5831 19.8593 40.7466 20.2713 40.7466C20.6833 40.7466 21.0785 40.5831 21.3702 40.292L35.4639 26.1983C35.8035 25.8581 36.0597 25.4439 36.2123 24.9881C36.2419 24.9002 36.2914 24.8203 36.357 24.7547C36.4226 24.6891 36.5025 24.6395 36.5905 24.61C37.0462 24.4575 37.4604 24.2016 37.8006 23.8623L43.2959 18.3662C43.5859 18.0747 43.7487 17.6801 43.7485 17.2688C43.7484 16.8576 43.5854 16.4631 43.2952 16.1717ZM25.4537 13.8553C25.3377 13.9714 25.1999 14.0635 25.0482 14.1263C24.8965 14.1892 24.7339 14.2215 24.5698 14.2215C24.4056 14.2215 24.243 14.1892 24.0913 14.1263C23.9397 14.0635 23.8019 13.9714 23.6858 13.8553L22.7866 12.9561C22.5578 12.7205 22.431 12.4044 22.4335 12.076C22.436 11.7477 22.5675 11.4335 22.7998 11.2013C23.032 10.9692 23.3463 10.8378 23.6746 10.8355C24.003 10.8331 24.319 10.9601 24.5545 11.1889L25.4537 12.0873C25.5699 12.2034 25.662 12.3412 25.7248 12.4929C25.7876 12.6446 25.82 12.8071 25.82 12.9713C25.82 13.1355 25.7876 13.2981 25.7248 13.4497C25.662 13.6014 25.5699 13.7392 25.4537 13.8553ZM28.8912 17.2928C28.6569 17.5271 28.339 17.6586 28.0077 17.6586C27.6763 17.6586 27.3585 17.5271 27.1241 17.2928L26.2647 16.4334C26.1486 16.3173 26.0565 16.1795 25.9937 16.0279C25.9309 15.8762 25.8985 15.7136 25.8985 15.5495C25.8985 15.3853 25.9309 15.2227 25.9937 15.071C26.0565 14.9194 26.1486 14.7816 26.2647 14.6655C26.4991 14.431 26.8171 14.2993 27.1487 14.2993C27.3128 14.2993 27.4754 14.3316 27.6271 14.3945C27.7788 14.4573 27.9166 14.5494 28.0327 14.6655L28.892 15.5248C29.0085 15.6409 29.101 15.7788 29.1641 15.9307C29.2272 16.0826 29.2597 16.2454 29.2598 16.4098C29.2599 16.5743 29.2275 16.7371 29.1645 16.8891C29.1016 17.041 29.0092 17.179 28.8928 17.2952L28.8912 17.2928ZM32.3287 20.7303C32.2127 20.8464 32.0749 20.9385 31.9232 21.0013C31.7715 21.0642 31.6089 21.0965 31.4448 21.0965C31.2806 21.0965 31.118 21.0642 30.9663 21.0013C30.8147 20.9385 30.6769 20.8464 30.5608 20.7303L29.7014 19.8709C29.4727 19.6353 29.3459 19.3192 29.3483 18.9909C29.3508 18.6625 29.4824 18.3483 29.7146 18.1162C29.9468 17.8841 30.2611 17.7526 30.5894 17.7503C30.9178 17.748 31.2339 17.8749 31.4694 18.1037L32.3287 18.9631C32.4456 19.079 32.5384 19.2168 32.6018 19.3686C32.6653 19.5205 32.6981 19.6833 32.6985 19.8479C32.6988 20.0124 32.6667 20.1754 32.6039 20.3275C32.5412 20.4796 32.449 20.6178 32.3327 20.7342L32.3287 20.7303ZM35.7998 24.21C35.6838 24.3261 35.546 24.4182 35.3943 24.481C35.2426 24.5439 35.08 24.5762 34.9159 24.5762C34.7517 24.5762 34.5891 24.5439 34.4374 24.481C34.2858 24.4182 34.1479 24.3261 34.0319 24.21L33.1381 23.3116C33.0196 23.1958 32.9252 23.0577 32.8606 22.9052C32.7959 22.7526 32.7622 22.5888 32.7614 22.4231C32.7606 22.2575 32.7927 22.0933 32.8559 21.9401C32.9192 21.787 33.0122 21.648 33.1296 21.5311C33.247 21.4143 33.3865 21.3219 33.54 21.2594C33.6934 21.197 33.8577 21.1656 34.0234 21.1672C34.1891 21.1688 34.3528 21.2033 34.505 21.2687C34.6572 21.3342 34.7948 21.4292 34.91 21.5483L35.8045 22.4459C35.9206 22.5621 36.0126 22.6999 36.0754 22.8516C36.1382 23.0033 36.1704 23.1659 36.1704 23.3301C36.1703 23.4943 36.1379 23.6568 36.075 23.8085C36.0121 23.9601 35.9199 24.0979 35.8037 24.2139L35.7998 24.21Z"/>
</mask>
<path d="M43.2952 16.1717L39.8475 12.7241C39.5693 12.4497 39.1985 12.2894 38.808 12.275C38.4175 12.2605 38.0358 12.3929 37.7381 12.6459C37.2785 13.0371 36.6887 13.2414 36.0856 13.2182C35.4825 13.1951 34.9101 12.9462 34.4819 12.5209C34.0568 12.0927 33.8081 11.5205 33.7849 10.9176C33.7618 10.3146 33.9659 9.72502 34.3569 9.26547C34.61 8.96777 34.7423 8.58606 34.7279 8.19559C34.7134 7.80513 34.5532 7.43425 34.2787 7.15609L30.828 3.70453C30.5363 3.41347 30.1412 3.25 29.7291 3.25C29.3171 3.25 28.9219 3.41347 28.6303 3.70453L23.1342 9.19984C22.7949 9.54038 22.539 9.95485 22.3866 10.4108C22.3569 10.4984 22.3074 10.5781 22.242 10.6435C22.1765 10.709 22.0969 10.7584 22.0092 10.7881C21.5531 10.9406 21.1386 11.1968 20.7983 11.5366L6.70453 25.6303C6.41347 25.9219 6.25 26.3171 6.25 26.7291C6.25 27.1412 6.41347 27.5363 6.70453 27.828L10.1561 31.2756C10.4343 31.55 10.8051 31.7103 11.1956 31.7247C11.5861 31.7392 11.9678 31.6068 12.2655 31.3537C12.724 30.9594 13.3146 30.7528 13.9189 30.7755C14.5233 30.7982 15.0967 31.0485 15.5244 31.4761C15.952 31.9037 16.2022 32.4772 16.2249 33.0815C16.2476 33.6859 16.0411 34.2765 15.6467 34.735C15.3936 35.0327 15.2613 35.4144 15.2757 35.8049C15.2902 36.1953 15.4504 36.5662 15.7248 36.8444L19.1725 40.292C19.4641 40.5831 19.8593 40.7466 20.2713 40.7466C20.6833 40.7466 21.0785 40.5831 21.3702 40.292L35.4639 26.1983C35.8035 25.8581 36.0597 25.4439 36.2123 24.9881C36.2419 24.9002 36.2914 24.8203 36.357 24.7547C36.4226 24.6891 36.5025 24.6395 36.5905 24.61C37.0462 24.4575 37.4604 24.2016 37.8006 23.8623L43.2959 18.3662C43.5859 18.0747 43.7487 17.6801 43.7485 17.2688C43.7484 16.8576 43.5854 16.4631 43.2952 16.1717ZM25.4537 13.8553C25.3377 13.9714 25.1999 14.0635 25.0482 14.1263C24.8965 14.1892 24.7339 14.2215 24.5698 14.2215C24.4056 14.2215 24.243 14.1892 24.0913 14.1263C23.9397 14.0635 23.8019 13.9714 23.6858 13.8553L22.7866 12.9561C22.5578 12.7205 22.431 12.4044 22.4335 12.076C22.436 11.7477 22.5675 11.4335 22.7998 11.2013C23.032 10.9692 23.3463 10.8378 23.6746 10.8355C24.003 10.8331 24.319 10.9601 24.5545 11.1889L25.4537 12.0873C25.5699 12.2034 25.662 12.3412 25.7248 12.4929C25.7876 12.6446 25.82 12.8071 25.82 12.9713C25.82 13.1355 25.7876 13.2981 25.7248 13.4497C25.662 13.6014 25.5699 13.7392 25.4537 13.8553ZM28.8912 17.2928C28.6569 17.5271 28.339 17.6586 28.0077 17.6586C27.6763 17.6586 27.3585 17.5271 27.1241 17.2928L26.2647 16.4334C26.1486 16.3173 26.0565 16.1795 25.9937 16.0279C25.9309 15.8762 25.8985 15.7136 25.8985 15.5495C25.8985 15.3853 25.9309 15.2227 25.9937 15.071C26.0565 14.9194 26.1486 14.7816 26.2647 14.6655C26.4991 14.431 26.8171 14.2993 27.1487 14.2993C27.3128 14.2993 27.4754 14.3316 27.6271 14.3945C27.7788 14.4573 27.9166 14.5494 28.0327 14.6655L28.892 15.5248C29.0085 15.6409 29.101 15.7788 29.1641 15.9307C29.2272 16.0826 29.2597 16.2454 29.2598 16.4098C29.2599 16.5743 29.2275 16.7371 29.1645 16.8891C29.1016 17.041 29.0092 17.179 28.8928 17.2952L28.8912 17.2928ZM32.3287 20.7303C32.2127 20.8464 32.0749 20.9385 31.9232 21.0013C31.7715 21.0642 31.6089 21.0965 31.4448 21.0965C31.2806 21.0965 31.118 21.0642 30.9663 21.0013C30.8147 20.9385 30.6769 20.8464 30.5608 20.7303L29.7014 19.8709C29.4727 19.6353 29.3459 19.3192 29.3483 18.9909C29.3508 18.6625 29.4824 18.3483 29.7146 18.1162C29.9468 17.8841 30.2611 17.7526 30.5894 17.7503C30.9178 17.748 31.2339 17.8749 31.4694 18.1037L32.3287 18.9631C32.4456 19.079 32.5384 19.2168 32.6018 19.3686C32.6653 19.5205 32.6981 19.6833 32.6985 19.8479C32.6988 20.0124 32.6667 20.1754 32.6039 20.3275C32.5412 20.4796 32.449 20.6178 32.3327 20.7342L32.3287 20.7303ZM35.7998 24.21C35.6838 24.3261 35.546 24.4182 35.3943 24.481C35.2426 24.5439 35.08 24.5762 34.9159 24.5762C34.7517 24.5762 34.5891 24.5439 34.4374 24.481C34.2858 24.4182 34.1479 24.3261 34.0319 24.21L33.1381 23.3116C33.0196 23.1958 32.9252 23.0577 32.8606 22.9052C32.7959 22.7526 32.7622 22.5888 32.7614 22.4231C32.7606 22.2575 32.7927 22.0933 32.8559 21.9401C32.9192 21.787 33.0122 21.648 33.1296 21.5311C33.247 21.4143 33.3865 21.3219 33.54 21.2594C33.6934 21.197 33.8577 21.1656 34.0234 21.1672C34.1891 21.1688 34.3528 21.2033 34.505 21.2687C34.6572 21.3342 34.7948 21.4292 34.91 21.5483L35.8045 22.4459C35.9206 22.5621 36.0126 22.6999 36.0754 22.8516C36.1382 23.0033 36.1704 23.1659 36.1704 23.3301C36.1703 23.4943 36.1379 23.6568 36.075 23.8085C36.0121 23.9601 35.9199 24.0979 35.8037 24.2139L35.7998 24.21Z" stroke="white" stroke-width="5" mask="url(#path-1-inside-1_2516_7470)"/>
<path d="M3.31279 57V48.74H0.0647891V47.2H8.38079V48.74H5.13279V57H3.31279ZM9.57866 57V49.524H11.3287V57H9.57866ZM10.4607 48.292C10.134 48.292 9.86333 48.1893 9.64866 47.984C9.44333 47.7787 9.34066 47.5313 9.34066 47.242C9.34066 46.9433 9.44333 46.696 9.64866 46.5C9.86333 46.2947 10.134 46.192 10.4607 46.192C10.7873 46.192 11.0533 46.29 11.2587 46.486C11.4733 46.6727 11.5807 46.9107 11.5807 47.2C11.5807 47.508 11.478 47.7693 11.2727 47.984C11.0673 48.1893 10.7967 48.292 10.4607 48.292ZM17.0555 57.098C16.2715 57.098 15.5715 56.9347 14.9555 56.608C14.3489 56.272 13.8729 55.8147 13.5275 55.236C13.1822 54.6573 13.0095 53.9993 13.0095 53.262C13.0095 52.5153 13.1822 51.8573 13.5275 51.288C13.8729 50.7093 14.3489 50.2567 14.9555 49.93C15.5715 49.6033 16.2715 49.44 17.0555 49.44C17.7835 49.44 18.4229 49.5893 18.9735 49.888C19.5335 50.1773 19.9582 50.6067 20.2475 51.176L18.9035 51.96C18.6795 51.6053 18.4042 51.344 18.0775 51.176C17.7602 51.008 17.4149 50.924 17.0415 50.924C16.6122 50.924 16.2249 51.0173 15.8795 51.204C15.5342 51.3907 15.2635 51.6613 15.0675 52.016C14.8715 52.3613 14.7735 52.7767 14.7735 53.262C14.7735 53.7473 14.8715 54.1673 15.0675 54.522C15.2635 54.8673 15.5342 55.1333 15.8795 55.32C16.2249 55.5067 16.6122 55.6 17.0415 55.6C17.4149 55.6 17.7602 55.516 18.0775 55.348C18.4042 55.18 18.6795 54.9187 18.9035 54.564L20.2475 55.348C19.9582 55.908 19.5335 56.342 18.9735 56.65C18.4229 56.9487 17.7835 57.098 17.0555 57.098ZM23.1199 55.334L23.1619 53.136L27.0679 49.524H29.1679L25.8499 52.856L24.9259 53.626L23.1199 55.334ZM21.6919 57V46.612H23.4419V57H21.6919ZM27.3339 57L24.6039 53.626L25.7099 52.226L29.4619 57H27.3339ZM33.8056 57.098C32.9749 57.098 32.2469 56.9347 31.6216 56.608C31.0056 56.272 30.5249 55.8147 30.1796 55.236C29.8436 54.6573 29.6756 53.9993 29.6756 53.262C29.6756 52.5153 29.8389 51.8573 30.1656 51.288C30.5016 50.7093 30.9589 50.2567 31.5376 49.93C32.1256 49.6033 32.7929 49.44 33.5396 49.44C34.2676 49.44 34.9162 49.5987 35.4856 49.916C36.0549 50.2333 36.5029 50.6813 36.8296 51.26C37.1562 51.8387 37.3196 52.52 37.3196 53.304C37.3196 53.3787 37.3149 53.4627 37.3056 53.556C37.3056 53.6493 37.3009 53.738 37.2916 53.822H31.0616V52.66H36.3676L35.6816 53.024C35.6909 52.5947 35.6022 52.2167 35.4156 51.89C35.2289 51.5633 34.9722 51.3067 34.6456 51.12C34.3282 50.9333 33.9596 50.84 33.5396 50.84C33.1102 50.84 32.7322 50.9333 32.4056 51.12C32.0882 51.3067 31.8362 51.568 31.6496 51.904C31.4722 52.2307 31.3836 52.618 31.3836 53.066V53.346C31.3836 53.794 31.4862 54.1907 31.6916 54.536C31.8969 54.8813 32.1862 55.1473 32.5596 55.334C32.9329 55.5207 33.3622 55.614 33.8476 55.614C34.2676 55.614 34.6456 55.5487 34.9816 55.418C35.3176 55.2873 35.6162 55.082 35.8776 54.802L36.8156 55.88C36.4796 56.272 36.0549 56.5753 35.5416 56.79C35.0376 56.9953 34.4589 57.098 33.8056 57.098ZM41.8145 57.098C40.9932 57.098 40.3585 56.888 39.9105 56.468C39.4625 56.0387 39.2385 55.4087 39.2385 54.578V47.872H40.9885V54.536C40.9885 54.8907 41.0772 55.166 41.2545 55.362C41.4412 55.558 41.6979 55.656 42.0245 55.656C42.4165 55.656 42.7432 55.5533 43.0045 55.348L43.4945 56.594C43.2892 56.762 43.0372 56.888 42.7385 56.972C42.4399 57.056 42.1319 57.098 41.8145 57.098ZM38.0065 50.98V49.58H42.9905V50.98H38.0065ZM47.2441 57.098C46.6188 57.098 46.0168 57.0187 45.4381 56.86C44.8688 56.692 44.4161 56.4913 44.0801 56.258L44.7521 54.928C45.0881 55.1427 45.4895 55.32 45.9561 55.46C46.4228 55.6 46.8895 55.67 47.3561 55.67C47.9068 55.67 48.3035 55.5953 48.5461 55.446C48.7981 55.2967 48.9241 55.096 48.9241 54.844C48.9241 54.6387 48.8401 54.4847 48.6721 54.382C48.5041 54.27 48.2848 54.186 48.0141 54.13C47.7435 54.074 47.4401 54.0227 47.1041 53.976C46.7775 53.9293 46.4461 53.8687 46.1101 53.794C45.7835 53.71 45.4848 53.5933 45.2141 53.444C44.9435 53.2853 44.7241 53.0753 44.5561 52.814C44.3881 52.5527 44.3041 52.2073 44.3041 51.778C44.3041 51.302 44.4395 50.8913 44.7101 50.546C44.9808 50.1913 45.3588 49.9207 45.8441 49.734C46.3388 49.538 46.9221 49.44 47.5941 49.44C48.0981 49.44 48.6068 49.496 49.1201 49.608C49.6335 49.72 50.0581 49.8787 50.3941 50.084L49.7221 51.414C49.3675 51.1993 49.0081 51.0547 48.6441 50.98C48.2895 50.896 47.9348 50.854 47.5801 50.854C47.0481 50.854 46.6515 50.9333 46.3901 51.092C46.1381 51.2507 46.0121 51.4513 46.0121 51.694C46.0121 51.918 46.0961 52.086 46.2641 52.198C46.4321 52.31 46.6515 52.3987 46.9221 52.464C47.1928 52.5293 47.4915 52.5853 47.8181 52.632C48.1541 52.6693 48.4855 52.73 48.8121 52.814C49.1388 52.898 49.4375 53.0147 49.7081 53.164C49.9881 53.304 50.2121 53.5047 50.3801 53.766C50.5481 54.0273 50.6321 54.368 50.6321 54.788C50.6321 55.2547 50.4921 55.6607 50.2121 56.006C49.9415 56.3513 49.5541 56.622 49.0501 56.818C48.5461 57.0047 47.9441 57.098 47.2441 57.098Z" fill="white"/>
</g>
<defs>
<clipPath id="clip0_2516_7470">
<rect width="51" height="58" fill="white"/>
</clipPath>
</defs>
</svg>
