<svg width="26" height="26" viewBox="0 0 26 26" fill="none" xmlns="http://www.w3.org/2000/svg">
<path d="M26 12.9989V12.9924C26 9.14552 24.3252 5.69077 21.6656 3.31502L21.6526 3.30419C21.6198 3.26878 21.5831 3.23717 21.5432 3.20994L21.541 3.20886C19.1789 1.13485 16.1412 -0.00610101 12.9978 2.45375e-05C9.71317 2.45375e-05 6.7145 1.21986 4.42867 3.23269L4.44275 3.22077C4.4152 3.24167 4.3898 3.26526 4.36692 3.29119C2.99274 4.50798 1.8928 6.00396 1.13995 7.67792C0.387103 9.35189 -0.00145913 11.1667 4.11739e-06 13.0022C4.11739e-06 16.848 1.67267 20.3028 4.33009 22.6796L4.34309 22.6904C4.3775 22.7295 4.416 22.7647 4.45792 22.7955L4.46009 22.7966C6.82158 24.8676 9.85691 26.0068 12.9978 26.0011C16.1534 26.006 19.2018 24.8561 21.5681 22.7684L21.554 22.7804C22.952 21.5649 24.0726 20.0634 24.84 18.3773C25.6075 16.6913 26.0038 14.8601 26.0022 13.0076V13L26 12.9989ZM21.1662 21.4544C20.5222 20.9334 19.8296 20.4756 19.0981 20.0872L19.0277 20.0525C19.6918 18.1383 20.0915 15.9315 20.1294 13.6359V13.6186H24.7455C24.5898 16.5885 23.3116 19.3882 21.1694 21.4511L21.1662 21.4544ZM13.6197 19.8239C15.0096 19.8987 16.3085 20.2042 17.5067 20.7014L17.4287 20.6733C16.4688 22.8616 15.1179 24.3653 13.6197 24.6957V19.8239ZM13.6197 18.5846V13.6186H18.8933C18.8515 15.6751 18.4949 17.713 17.836 19.6614L17.8783 19.5195C16.5332 18.9667 15.1027 18.6508 13.65 18.5857L13.6208 18.5846H13.6197ZM13.6197 12.3793V7.41327C15.1116 7.34518 16.5804 7.01858 17.9606 6.44802L17.875 6.47944C18.4763 8.23336 18.8457 10.2549 18.8933 12.3565V12.3793H13.6197ZM13.6197 6.17394V1.30436C15.1179 1.63477 16.4688 3.13194 17.4287 5.32677C16.3085 5.79261 15.0096 6.09702 13.6511 6.17286L13.6197 6.17394ZM16.7115 1.84061C17.9881 2.2664 19.1819 2.90841 20.241 3.73861L20.2161 3.71911C19.7362 4.09611 19.1978 4.45144 18.6301 4.76019L18.5694 4.79052C18.1107 3.70798 17.48 2.7067 16.7018 1.82544L16.7115 1.83736V1.84061ZM12.3782 1.30761V6.17394C11.0419 6.10577 9.72715 5.80897 8.49117 5.29644L8.56917 5.32461C9.53334 3.13627 10.8821 1.63369 12.3803 1.30327L12.3782 1.30761ZM7.4295 4.78727C6.84226 4.47133 6.28272 4.10639 5.75684 3.69636L5.78284 3.71586C6.81106 2.91002 7.96761 2.28304 9.204 1.86119L9.28634 1.83627C8.52845 2.69366 7.91091 3.66549 7.45659 4.71577L7.4295 4.78727ZM12.3803 7.41219V12.3782H7.10667C7.15434 10.2538 7.52375 8.23227 8.16725 6.33644L8.125 6.47836C9.46948 7.03028 10.8992 7.34584 12.3511 7.41111L12.3803 7.41219ZM12.3803 13.6175V18.5835C10.8884 18.6516 9.41962 18.9782 8.03942 19.5488L8.125 19.5174C7.52375 17.7645 7.15434 15.7419 7.10667 13.6403V13.6175H12.3803ZM12.3803 19.8229V24.6924C10.8821 24.362 9.53117 22.8649 8.57134 20.67C9.6915 20.2042 10.9904 19.9009 12.3489 19.825L12.3803 19.8229ZM9.29284 24.1562C8.01662 23.7316 6.82277 23.0911 5.76334 22.2625L5.78934 22.282C6.26925 21.905 6.80767 21.5497 7.37534 21.2409L7.436 21.2106C7.89088 22.2936 8.52156 23.294 9.30259 24.1714L9.29284 24.1605V24.1562ZM18.5705 21.2095C19.1988 21.5508 19.7373 21.905 20.2432 22.3004L20.2172 22.2809C19.1889 23.0868 18.0324 23.7138 16.796 24.1356L16.7137 24.1605C17.4715 23.3035 18.0891 22.3321 18.5434 21.2821L18.5705 21.2117V21.2095ZM24.7455 12.3793H20.1294C20.0962 10.1378 19.7094 7.91562 18.9833 5.79477L19.0277 5.94427C19.7929 5.54134 20.5175 5.06535 21.1911 4.52294L21.1651 4.54244C23.3028 6.59756 24.5815 9.38693 24.7433 12.3479L24.7444 12.3782L24.7455 12.3793ZM4.83384 4.54352C5.45784 5.05052 6.15875 5.51527 6.90192 5.91069L6.97234 5.94536C6.30825 7.85961 5.9085 10.0664 5.87059 12.3619V12.3793H1.25342C1.40909 9.40942 2.68737 6.60966 4.8295 4.54677L4.83384 4.54352ZM1.2545 13.6186H5.87059C5.9038 15.8601 6.29061 18.0823 7.01675 20.2031L6.97234 20.0536C6.15875 20.4859 5.45892 20.9506 4.80892 21.4749L4.83492 21.4554C2.69722 19.4003 1.41848 16.6109 1.25667 13.65L1.25559 13.6197L1.2545 13.6186Z" fill="#5A5A5A"/>
</svg>
