<svg width="28" height="28" viewBox="0 0 28 28" fill="none" xmlns="http://www.w3.org/2000/svg">
<path d="M4 14C4 16.6522 5.05357 19.1957 6.92893 21.0711C8.8043 22.9464 11.3478 24 14 24M4 14C4 11.3478 5.05357 8.8043 6.92893 6.92893C8.8043 5.05357 11.3478 4 14 4M4 14H1.5M14 24C16.6522 24 19.1957 22.9464 21.0711 21.0711C22.9464 19.1957 24 16.6522 24 14M14 24V26.5M24 14C24 11.3478 22.9464 8.8043 21.0711 6.92893C19.1957 5.05357 16.6522 4 14 4M24 14H26.5M14 4V1.5" stroke="#5A5A5A" stroke-width="2.5" stroke-linecap="round" stroke-linejoin="round"/>
</svg>
