<svg width="13" height="22" viewBox="0 0 13 22" fill="none" xmlns="http://www.w3.org/2000/svg">
<path d="M6.04 22L0.37 12.1V10.78H1.03C2.09 10.78 2.98 10.68 3.7 10.48C4.44 10.28 5.02 9.95 5.44 9.49C5.86 9.03 6.11 8.4 6.19 7.6H0.37V5.68H6.16C6.02 4.94 5.74 4.34 5.32 3.88C4.9 3.4 4.33 3.05 3.61 2.83C2.91 2.61 2.05 2.5 1.03 2.5H0.37V0.579999H12.79V2.5H7.12C7.58 2.88 7.96 3.33 8.26 3.85C8.56 4.37 8.75 4.98 8.83 5.68H12.79V7.6H8.89C8.75 9.06 8.19 10.2 7.21 11.02C6.25 11.82 4.97 12.33 3.37 12.55L9.1 22H6.04Z" fill="#5A5A5A"/>
</svg>
